<svg width="110" height="115" viewBox="0 0 110 115" fill="none" xmlns="http://www.w3.org/2000/svg">
<path d="M1.5 20.2581V109.604H25.455V20.2581H1.5Z" stroke="#2C2C2C" stroke-width="2"/>
<path d="M26.75 9.25178V109.604H52.6473V1.8063L26.75 9.25178Z" stroke="#2C2C2C" stroke-width="2"/>
<path d="M9.91675 78.2034H17.0385" stroke="#2C2C2C" stroke-width="2"/>
<path d="M9.91675 68.4918H17.0385" stroke="#2C2C2C" stroke-width="2"/>
<path d="M9.91675 58.7803H17.0385" stroke="#2C2C2C" stroke-width="2"/>
<path d="M9.91675 49.0688H17.0385" stroke="#2C2C2C" stroke-width="2"/>
<path d="M9.91675 39.3574H17.0385" stroke="#2C2C2C" stroke-width="2"/>
<path d="M9.91675 29.6459H17.0385" stroke="#2C2C2C" stroke-width="2"/>
<path d="M36.4614 76.261H43.5832" stroke="#2C2C2C" stroke-width="2"/>
<path d="M36.4614 85.3251H43.5832" stroke="#2C2C2C" stroke-width="2"/>
<path d="M36.4614 17.9921H43.5832" stroke="#2C2C2C" stroke-width="2"/>
<path d="M36.4614 66.5496H43.5832" stroke="#2C2C2C" stroke-width="2"/>
<path d="M36.4614 56.8381H43.5832" stroke="#2C2C2C" stroke-width="2"/>
<path d="M36.4614 47.1266H43.5832" stroke="#2C2C2C" stroke-width="2"/>
<path d="M36.4614 37.4151H43.5832" stroke="#2C2C2C" stroke-width="2"/>
<path d="M36.4614 27.7036H43.5832" stroke="#2C2C2C" stroke-width="2"/>
<path d="M11.2114 95.0366V108.956H16.3909V95.0366C16.3909 92.4469 11.2114 92.4469 11.2114 95.0366Z" fill="#2C2C2C"/>
<path d="M37.7563 95.0366V108.956H42.9358V95.0366C42.9358 92.4469 37.7563 92.4469 37.7563 95.0366Z" fill="#2C2C2C"/>
<path d="M64.5 100.918V109.694L68.5 109.694V100.918C68.5 99.2854 64.5 99.2855 64.5 100.918Z" fill="#2C2C2C"/>
<path d="M53.2947 18.3159L81.7817 27.7036V33.5305" stroke="#2C2C2C" stroke-width="2"/>
<circle cx="86.3137" cy="65.9022" r="11.9487" stroke="#2C2C2C" stroke-width="2"/>
<path d="M108.326 68.492C106.746 78.8508 85.9901 112.194 85.9901 112.194C85.9901 112.194 66.0259 78.5273 64.301 68.492C62.5762 58.4567 71.7465 41.9472 85.9901 41.9471C100.557 41.9471 109.907 58.1331 108.326 68.492Z" stroke="#2C2C2C" stroke-width="2"/>
<path d="M52.3235 109.604H74.9836" stroke="#2C2C2C" stroke-width="2"/>
</svg>
